PathFileType	4	(X/Y/Z)	Kaydara																																																																																																																									
DataRate	CameraRate	NumFrames	NumMarkers	Units	OrigDataRate	OrigDataStartFrame	OrigNumFrames																																																																																																																					
30	30	6	41	mm	30	74	195																																																																																																																					
Frame#	Time	NABA_LFHD			NABA_RFHD			NABA_LBHD			NABA_RBHD			NABA_LFTShould			NABA_RFTShould			NABA_LRRShould			NABA_RRRShould			NABA_T10			NABA_STRN			NABA_TRUN			NABA_LSHO			NABA_LUPA			NABA_LELB			NABA_LFRM			NABA_LWRA			NABA_LWRB			NABA_LFIN			NABA_RSHO			NABA_RUPA			NABA_RELB			NABA_RFRM			NABA_RWRA			NABA_RWRB			NABA_RFIN			NABA_LFWT			NABA_RFWT			NABA_LBWT			NABA_RBWT			NABA_LTHI			NABA_LKNE			NABA_LSHN			NABA_LANK			NABA_LHEE			NABA_LTOE			NABA_RTHI			NABA_RKNE			NABA_RSHN			NABA_RANK			NABA_RHEE			NABA_RTOE		
		X1	Y1	Z1	X2	Y2	Z2	X3	Y3	Z3	X4	Y4	Z4	X5	Y5	Z5	X6	Y6	Z6	X7	Y7	Z7	X8	Y8	Z8	X9	Y9	Z9	X10	Y10	Z10	X11	Y11	Z11	X12	Y12	Z12	X13	Y13	Z13	X14	Y14	Z14	X15	Y15	Z15	X16	Y16	Z16	X17	Y17	Z17	X18	Y18	Z18	X19	Y19	Z19	X20	Y20	Z20	X21	Y21	Z21	X22	Y22	Z22	X23	Y23	Z23	X24	Y24	Z24	X25	Y25	Z25	X26	Y26	Z26	X27	Y27	Z27	X28	Y28	Z28	X29	Y29	Z29	X30	Y30	Z30	X31	Y31	Z31	X32	Y32	Z32	X33	Y33	Z33	X34	Y34	Z34	X35	Y35	Z35	X36	Y36	Z36	X37	Y37	Z37	X38	Y38	Z38	X39	Y39	Z39	X40	Y40	Z40	X41	Y41	Z41
																																																																																																																												
74	2.443	254.70184	1604.80927	-1855.95581	85.91067	1583.14072	-1828.42911	267.63285	1573.15292	-1978.84933	51.35366	1563.92044	-1922.82043	251.33169	1324.13986	-1871.38031	115.12596	1318.89908	-1877.77008	253.90909	1373.48602	-1993.28247	103.0048	1370.60074	-1990.55847	190.39633	1208.04253	-2061.14883	183.0768	1266.32057	-1827.43027	182.83081	1168.39348	-1780.76187	350.1899	1342.54105	-1922.04742	406.21128	1105.72929	-1966.10367	412.83314	1021.2809	-1944.49661	406.28384	953.98239	-1974.63989	350.7938	798.15224	-1918.07907	422.03259	799.38362	-1917.41638	398.84983	732.96135	-1886.26984	21.69853	1338.20007	-1927.90756	-30.23766	1145.01266	-2005.76675	-63.35079	1019.90349	-1970.54565	-67.66783	922.58652	-1961.10199	-0.57567	801.03905	-1881.96594	-73.97653	789.04602	-1880.91827	-58.40266	752.65106	-1849.41696	314.44462	936.13014	-1887.74124	49.08306	926.39145	-1892.19131	255.73296	1017.37396	-2052.90573	95.28012	1020.96199	-2056.29776	321.28094	647.31667	-2042.28226	304.32592	495.12802	-1994.25873	238.2234	298.14722	-1994.89777	267.78091	152.26118	-2075.51178	212.31241	111.4594	-2139.52286	236.96289	80.8858	-1959.87015	49.4066	640.97595	-1996.90826	65.9342	497.4477	-1851.50909	70.72936	324.96941	-1914.02924	55.59928	167.21117	-2042.38937	108.873	141.20724	-2120.34073	57.34367	76.44859	-1948.44315
75	2.477	256.38939	1601.22955	-1841.53854	87.5416	1579.66278	-1814.79614	269.75985	1569.8468	-1964.41757	53.24638	1560.71136	-1909.30618	249.01365	1317.69974	-1854.02359	115.51434	1313.59711	-1866.91406	257.35716	1372.1254	-1978.08655	105.88439	1369.55292	-1978.21014	194.9415	1209.07608	-2052.38052	183.40553	1258.40889	-1817.40021	181.96377	1159.45442	-1773.24966	351.67358	1338.19138	-1905.76752	410.7972	1102.28539	-1953.07037	417.67761	1017.23129	-1932.02576	412.15946	949.77127	-1962.33505	354.81716	793.94394	-1907.73483	425.89104	794.97658	-1905.22812	401.89129	728.69102	-1874.81613	23.69518	1334.52377	-1917.83752	-26.65295	1142.4984	-2001.56403	-61.65728	1017.31346	-1968.51624	-66.67073	919.82483	-1959.95163	-1.55552	797.0401	-1880.522	-75.36847	785.84167	-1880.85144	-61.10498	749.54208	-1849.11819	316.98261	934.15062	-1887.37091	51.36232	923.40118	-1891.35056	259.43253	1017.4556	-2048.59329	99.26363	1019.12987	-2054.50531	325.34515	647.59209	-2041.55426	308.39203	494.8724	-1994.94034	240.61312	298.18943	-1995.53619	269.12819	151.94702	-2075.90454	212.92326	111.31908	-2140.03937	238.02219	80.83488	-1960.44998	55.69318	638.37341	-1973.15567	71.97098	509.34361	-1811.50726	77.0485	335.79918	-1877.56729	57.76698	188.83898	-2018.22495	108.81103	171.53475	-2098.92349	61.88859	80.28189	-1936.11511
76	2.51	257.74435	1599.10934	-1825.8284	88.1735	1577.84531	-1799.74899	271.29307	1568.00751	-1948.58429	54.64808	1558.965	-1894.18884	250.32484	1313.0571	-1842.32819	116.08561	1310.728	-1854.9826	260.28118	1372.26746	-1962.81143	108.267	1369.39926	-1965.38651	199.0992	1210.70786	-2041.4505	182.71217	1254.07066	-1805.99945	180.41821	1154.30435	-1763.90945	352.60033	1336.50421	-1888.93616	413.37868	1100.79422	-1937.28851	420.59456	1015.72227	-1916.91956	415.34065	947.56638	-1946.55731	357.39975	792.59537	-1889.90051	428.60435	793.51913	-1887.15805	404.32007	728.0983	-1855.43488	25.0844	1332.89154	-1907.03827	-21.93387	1142.26974	-1995.71365	-59.25652	1017.28745	-1966.46759	-64.86742	919.5668	-1959.2836	-3.07966	795.27542	-1879.3782	-76.87606	784.49356	-1882.2818	-64.13871	747.98294	-1850.50537	319.60388	932.72263	-1880.44907	53.5675	921.92657	-1887.77573	263.31594	1017.71317	-2041.38824	103.06444	1018.80455	-2049.48166	328.94264	647.81799	-2038.98224	310.95621	494.43626	-1995.0473	243.01739	298.11178	-1995.63309	270.15753	151.81087	-2076.63284	213.30078	111.29481	-2140.4216	239.31974	80.79716	-1960.94055	60.15957	639.6748	-1952.77618	74.82333	522.96825	-1779.76624	82.25649	348.87749	-1842.77222	63.26173	203.28691	-1984.55872	111.64717	188.92185	-2067.29523	72.03464	93.71923	-1905.16098
77	2.543	258.75284	1598.49243	-1808.80997	89.0659	1577.2197	-1782.81509	272.19854	1568.3223	-1931.61392	55.46177	1559.11652	-1877.36191	251.55384	1313.40302	-1828.56201	116.22993	1310.12772	-1841.53	261.52256	1373.2045	-1946.23169	110.12044	1370.11108	-1950.93323	203.06219	1212.91328	-2028.36166	182.09398	1253.27538	-1792.45056	179.57958	1152.95227	-1751.79337	353.23132	1337.2963	-1872.32254	414.39198	1101.08368	-1919.78943	422.2401	1016.32744	-1898.81531	416.74828	947.2155	-1926.8985	358.50769	793.93799	-1865.91003	429.82731	794.50363	-1864.12872	406.51588	730.86617	-1829.40353	25.88755	1332.75864	-1894.7876	-17.83448	1143.95462	-1988.21716	-56.7174	1018.74809	-1963.08563	-62.87081	920.97565	-1958.13492	-4.36103	794.5533	-1878.33878	-77.97951	784.35913	-1884.72977	-66.7059	747.29774	-1853.04306	322.08786	931.0746	-1871.5361	56.04749	923.10188	-1880.70236	267.11115	1018.75389	-2031.47903	107.32319	1021.85913	-2040.52368	329.78218	648.08258	-2034.77737	311.60721	494.1431	-1993.60825	243.81495	298.43193	-1996.14105	270.71054	152.13422	-2076.96899	213.62404	111.52619	-2140.58731	240.3587	80.71739	-1961.5358	61.06019	644.60663	-1934.98199	77.85415	537.84084	-1753.47534	88.9334	359.73961	-1805.84702	70.28954	206.95404	-1940.73563	121.08817	188.41444	-2021.74347	76.75152	102.97204	-1856.10458
78	2.577	259.30906	1597.71729	-1790.38177	89.47791	1576.30035	-1764.53934	272.54597	1568.94424	-1913.39737	55.86441	1559.35883	-1859.19678	251.82995	1314.33945	-1812.53525	116.49217	1309.96155	-1827.02728	262.75349	1374.40491	-1929.05136	111.84096	1370.63766	-1935.86609	206.9072	1214.63844	-2013.64944	181.88181	1253.68965	-1777.18445	179.50335	1153.01941	-1737.35214	353.89671	1339.05518	-1854.21722	415.15625	1102.41852	-1899.59213	423.72833	1017.84714	-1877.56134	417.14497	946.82709	-1902.7861	358.81702	796.76407	-1836.66229	430.04761	796.78497	-1835.60318	407.52438	735.81787	-1797.01782	26.9803	1332.72202	-1881.3559	-14.36976	1146.4241	-1978.83484	-54.65457	1020.62584	-1957.72659	-61.23752	922.86453	-1955.54428	-5.41111	793.95226	-1877.73315	-78.81647	784.3087	-1886.43646	-68.5459	746.17912	-1855.51666	324.16763	928.92075	-1859.96002	58.31325	926.44226	-1869.9353	270.64814	1018.78868	-2018.29514	111.67194	1025.37796	-2028.89862	328.82965	648.10753	-2028.89709	311.30507	493.63312	-1990.45914	244.05979	298.54744	-1994.81369	270.90181	152.6414	-2077.4585	213.59241	111.96238	-2140.47165	241.61766	80.47084	-1961.74728	58.80481	650.99953	-1917.76367	79.56352	551.17279	-1731.98105	90.14661	368.66558	-1770.40146	75.94429	202.54963	-1889.35028	130.0743	176.04492	-1965.99152	77.96743	107.55738	-1793.75549
79	2.61	259.42535	1596.14838	-1770.72556	89.34134	1574.11011	-1745.19867	272.68198	1569.16595	-1893.9151	55.96717	1558.56415	-1840.02686	252.05532	1314.5752	-1795.41855	116.83508	1309.34372	-1811.50452	263.85015	1374.65393	-1911.33621	113.37701	1370.09796	-1919.80972	210.16228	1214.94766	-1997.38052	182.10484	1253.4967	-1760.63919	179.90288	1152.61742	-1721.28922	354.51942	1340.01434	-1835.49652	416.9371	1103.07106	-1877.17545	425.97103	1018.94073	-1854.00879	419.22363	946.7717	-1876.78101	357.53036	800.73517	-1801.14914	429.50546	799.25255	-1801.65115	406.96575	741.44424	-1759.10263	28.09003	1331.56357	-1866.65375	-11.50033	1147.76306	-1967.62665	-52.9169	1021.6256	-1950.02289	-59.9998	924.11346	-1950.92896	-6.36744	792.42455	-1876.01608	-79.47825	783.44566	-1886.5834	-69.6073	744.04305	-1856.93451	324.76032	926.32736	-1846.21429	60.02471	928.32901	-1856.05072	272.97775	1018.15857	-2003.67523	114.44398	1027.34779	-2014.69131	327.8968	647.93022	-2020.87357	311.54623	492.72408	-1985.04425	246.06493	297.23764	-1991.64368	271.62327	153.02431	-2077.23236	214.00658	112.74035	-2140.05981	242.91874	80.27223	-1962.00043	55.78978	654.72855	-1900.35263	80.86065	558.64655	-1714.10675	89.88721	373.3147	-1734.47342	77.69526	192.70336	-1829.8613	133.81401	154.6579	-1899.16	79.18601	109.27841	-1721.02951
